<svg width="120" height="28" viewBox="0 0 120 28" fill="none" xmlns="http://www.w3.org/2000/svg">
<g clip-path="url(#clip0_8323_5833)">
<path d="M27.1112 1.8667H13.7778V15.8667H27.1112V1.8667Z" fill="#BBCE00"/>
<path d="M15.1112 12.1333H1.77783V26.1333H15.1112V12.1333Z" fill="#64C7B5"/>
<path d="M17.3333 0H0V18.2H17.3333V0Z" fill="#1DB6BB"/>
<path d="M28.8891 9.33337H11.1113V28H28.8891V9.33337Z" fill="#007678"/>
<path fill-rule="evenodd" clip-rule="evenodd" d="M4.13936 19.0181C3.69431 19.0181 3.3335 18.6415 3.3335 18.177C3.3335 17.7124 3.69431 17.3358 4.13936 17.3358H10.0636L11.7919 11.4127C11.9205 10.9699 12.3688 10.7198 12.7929 10.8541C13.0674 10.9409 13.2645 11.1675 13.3347 11.4365L13.3375 11.4357L14.0379 14.1303L15.1525 7.91804C15.2342 7.46256 15.6543 7.16248 16.0907 7.24776C16.4315 7.31437 16.6815 7.59648 16.7357 7.9339L18.4652 17.4081L19.3432 16.1569C19.5006 15.9328 19.7444 15.8141 19.9916 15.8138V15.8119H24.9721C25.4171 15.8119 25.7779 16.1885 25.7779 16.6531C25.7779 17.1176 25.4171 17.4942 24.9721 17.4942H20.398L18.67 19.9569C18.5533 20.1227 18.3785 20.2446 18.1695 20.2855C17.7331 20.3707 17.3131 20.0707 17.2314 19.6152L15.9494 12.5927L14.9812 17.9892C14.9441 18.3205 14.719 18.6109 14.3917 18.7036C13.9623 18.8251 13.5197 18.5603 13.4032 18.1121L12.5137 14.6898L11.4464 18.3476C11.3708 18.7303 11.0462 19.0181 10.6571 19.0181H4.13931H4.13936Z" fill="white"/>
</g>
<path d="M51.1939 21.3107V15.8096C51.1939 14.9377 51.089 14.3353 50.8792 14.0025C50.6758 13.6697 50.3198 13.5033 49.8112 13.5033C49.1755 13.5033 48.7337 13.7363 48.4857 14.2022C48.2378 14.6615 48.1138 15.6066 48.1138 17.0376V21.3107H44.8334V15.8096C44.8334 14.9244 44.7317 14.3187 44.5283 13.9926C44.3249 13.6664 43.9688 13.5033 43.4603 13.5033C42.8245 13.5033 42.3795 13.733 42.1252 14.1922C41.8709 14.6448 41.7438 15.5933 41.7438 17.0376V21.3107H38.4443V11.227H41.7819V12.9842C42.1824 12.272 42.6433 11.7495 43.1646 11.4167C43.6923 11.0773 44.3121 10.9076 45.0242 10.9076C45.8061 10.9076 46.445 11.0673 46.9409 11.3868C47.4431 11.6996 47.8023 12.1722 48.0185 12.8045C48.3935 12.1655 48.8513 11.6896 49.3916 11.3768C49.932 11.064 50.5677 10.9076 51.2988 10.9076C51.8773 10.9076 52.3828 11.0107 52.815 11.2171C53.2537 11.4167 53.6192 11.7196 53.9117 12.1256C54.1469 12.4451 54.3122 12.8178 54.4076 13.2438C54.5093 13.6697 54.5601 14.362 54.5601 15.3204V21.3107H51.1939Z" fill="#1E2121"/>
<path d="M62.9241 14.971C62.8605 14.3986 62.6507 13.9393 62.2947 13.5932C61.9451 13.2471 61.5128 13.074 60.9978 13.074C60.4447 13.074 60.0029 13.2338 59.6723 13.5533C59.3481 13.8661 59.132 14.3387 59.0239 14.971H62.9241ZM66.2712 16.9777H58.9476C58.9539 17.7564 59.1447 18.3588 59.5198 18.7848C59.8948 19.2041 60.4257 19.4138 61.1123 19.4138C61.6272 19.4138 62.0595 19.3139 62.4092 19.1142C62.7652 18.9079 63.0353 18.6051 63.2197 18.2057L65.7754 19.284C65.4702 20.056 64.9298 20.6517 64.1542 21.0711C63.3786 21.4904 62.4282 21.7 61.303 21.7C59.6246 21.7 58.2769 21.2142 57.2597 20.2424C56.2489 19.264 55.7435 17.9761 55.7435 16.3787C55.7435 14.8079 56.2489 13.5033 57.2597 12.465C58.2769 11.4267 59.5611 10.9076 61.1123 10.9076C62.7079 10.9076 63.9667 11.4334 64.8885 12.485C65.8103 13.5366 66.2712 14.9776 66.2712 16.808V16.9777Z" fill="#1E2121"/>
<path d="M75.1371 16.2788C75.1371 15.4934 74.9369 14.8745 74.5363 14.4219C74.1422 13.9693 73.6018 13.743 72.9152 13.743C72.2286 13.743 71.6883 13.9693 71.2941 14.4219C70.9 14.8745 70.7029 15.4934 70.7029 16.2788C70.7029 17.0709 70.8968 17.6932 71.2846 18.1458C71.6787 18.5918 72.2223 18.8147 72.9152 18.8147C73.6018 18.8147 74.1422 18.5884 74.5363 18.1358C74.9369 17.6832 75.1371 17.0642 75.1371 16.2788ZM78.1505 5.83579V21.3107H75.0227V19.6733C74.5904 20.3522 74.104 20.8614 73.5637 21.2008C73.0233 21.5336 72.4225 21.7 71.7614 21.7C70.4073 21.7 69.3297 21.2108 68.5287 20.2324C67.7277 19.254 67.3271 17.9362 67.3271 16.2788C67.3271 14.6748 67.7245 13.3802 68.5191 12.3951C69.3202 11.4034 70.3628 10.9076 71.6469 10.9076C72.4607 10.9076 73.1218 11.0606 73.6304 11.3668C74.1454 11.673 74.6031 12.1855 75.0036 12.9043C74.9655 12.6647 74.9369 12.3951 74.9178 12.0956C74.8987 11.7895 74.8892 11.46 74.8892 11.1072V5.83579H78.1505Z" fill="#1E2121"/>
<path d="M80.3854 7.78021C80.3854 7.24109 80.5665 6.78183 80.9289 6.40245C81.2976 6.02307 81.7395 5.83337 82.2544 5.83337C82.7884 5.83337 83.2334 6.01974 83.5894 6.39247C83.9518 6.76519 84.133 7.22778 84.133 7.78021C84.133 8.33265 83.9486 8.80189 83.5799 9.18793C83.2175 9.57397 82.7757 9.76699 82.2544 9.76699C81.7458 9.76699 81.3072 9.57064 80.9384 9.17795C80.5697 8.78525 80.3854 8.31934 80.3854 7.78021ZM80.557 21.3079V11.2263H83.9613V21.3079H80.557Z" fill="#1E2121"/>
<path d="M86.3584 21.3107V5.83579H89.6959V15.6299L93.1956 11.227H97.4105L93.0812 16.0792L97.8015 21.3107H93.3292L89.6959 16.8279V21.3107H86.3584Z" fill="#1E2121"/>
<path d="M105.644 16.2589C105.644 15.4735 105.443 14.8512 105.043 14.3919C104.642 13.9326 104.096 13.703 103.403 13.703C102.71 13.703 102.163 13.9326 101.762 14.3919C101.368 14.8445 101.171 15.4668 101.171 16.2589C101.171 17.0443 101.371 17.6633 101.772 18.1159C102.172 18.5685 102.716 18.7948 103.403 18.7948C104.096 18.7948 104.642 18.5685 105.043 18.1159C105.443 17.6633 105.644 17.0443 105.644 16.2589ZM108.628 11.227V21.3107H105.51V19.6733C105.065 20.3722 104.563 20.8847 104.003 21.2108C103.45 21.537 102.799 21.7 102.049 21.7C100.764 21.7 99.7376 21.2108 98.9684 20.2324C98.1992 19.2474 97.8145 17.9295 97.8145 16.2788C97.8145 14.6348 98.215 13.3303 99.0161 12.3652C99.8234 11.3934 100.907 10.9076 102.268 10.9076C102.993 10.9076 103.616 11.0706 104.137 11.3968C104.665 11.7162 105.116 12.2121 105.491 12.8843V11.227H108.628Z" fill="#1E2121"/>
<path d="M110.987 21.3107V11.227H114.191V13.6032C114.522 12.7379 114.973 12.089 115.545 11.6563C116.118 11.2237 116.811 11.0074 117.624 11.0074C117.758 11.0074 117.891 11.0141 118.025 11.0274C118.165 11.034 118.304 11.0473 118.444 11.0673L118.12 14.302C117.917 14.2288 117.716 14.1756 117.519 14.1423C117.322 14.109 117.132 14.0924 116.947 14.0924C116.121 14.0924 115.482 14.3586 115.03 14.8911C114.585 15.4169 114.363 16.1657 114.363 17.1374V21.3107H110.987Z" fill="#1E2121"/>
<defs>
<clipPath id="clip0_8323_5833">
<rect width="28.951" height="28" fill="white"/>
</clipPath>
</defs>
</svg>
