<svg width="29" height="28" viewBox="0 0 29 28" fill="none" xmlns="http://www.w3.org/2000/svg">
<g clip-path="url(#clip0_8323_5834)">
<path d="M27.1112 1.8667H13.7778V15.8667H27.1112V1.8667Z" fill="#BBCE00"/>
<path d="M15.1112 12.1333H1.77783V26.1333H15.1112V12.1333Z" fill="#64C7B5"/>
<path d="M17.3333 0H0V18.2H17.3333V0Z" fill="#1DB6BB"/>
<path d="M28.8891 9.33337H11.1113V28H28.8891V9.33337Z" fill="#007678"/>
<path fill-rule="evenodd" clip-rule="evenodd" d="M4.13936 19.0181C3.69431 19.0181 3.3335 18.6415 3.3335 18.177C3.3335 17.7124 3.69431 17.3358 4.13936 17.3358H10.0636L11.7919 11.4127C11.9205 10.9699 12.3688 10.7198 12.7929 10.8541C13.0674 10.9409 13.2645 11.1675 13.3347 11.4365L13.3375 11.4357L14.0379 14.1303L15.1525 7.91804C15.2342 7.46256 15.6543 7.16248 16.0907 7.24776C16.4315 7.31437 16.6815 7.59648 16.7357 7.9339L18.4652 17.4081L19.3432 16.1569C19.5006 15.9328 19.7444 15.8141 19.9916 15.8138V15.8119H24.9721C25.4171 15.8119 25.7779 16.1885 25.7779 16.6531C25.7779 17.1176 25.4171 17.4942 24.9721 17.4942H20.398L18.67 19.9569C18.5533 20.1227 18.3785 20.2446 18.1695 20.2855C17.7331 20.3707 17.3131 20.0707 17.2314 19.6152L15.9494 12.5927L14.9812 17.9892C14.9441 18.3205 14.719 18.6109 14.3917 18.7036C13.9623 18.8251 13.5197 18.5603 13.4032 18.1121L12.5137 14.6898L11.4464 18.3476C11.3708 18.7303 11.0462 19.0181 10.6571 19.0181H4.13931H4.13936Z" fill="white"/>
</g>
<defs>
<clipPath id="clip0_8323_5834">
<rect width="28.951" height="28" fill="white"/>
</clipPath>
</defs>
</svg>
